<svg xmlns="http://www.w3.org/2000/svg" xmlns:xlink="http://www.w3.org/1999/xlink" viewBox="0 0 175 175"><defs><clipPath id="a"><rect width="175" height="175" fill="none"/></clipPath><clipPath id="b"><path d="M10.373,87.469a77.1,77.1,0,1,0,77.1-77.1,77.1,77.1,0,0,0-77.1,77.1" transform="translate(-10.373 -10.373)" fill="none"/></clipPath></defs><g transform="translate(0 0.106)"><g transform="translate(0 -0.106)"><g clip-path="url(#a)"><path d="M174.893,87.446A87.447,87.447,0,1,1,87.446,0a87.447,87.447,0,0,1,87.447,87.447" transform="translate(0 0.107)" fill="#fff"/><path d="M167.044,87.334a79.709,79.709,0,1,1-79.71-79.71,79.71,79.71,0,0,1,79.71,79.71" transform="translate(0.112 0.219)" fill="#163881"/></g></g><g transform="translate(10.35 10.35)"><g clip-path="url(#b)"><path d="M164.567,87.469a77.1,77.1,0,1,1-77.1-77.1,77.1,77.1,0,0,1,77.1,77.1" transform="translate(-10.373 -10.373)" fill="#fff"/><path d="M33.188,71.671v-.037a6.678,6.678,0,0,1,6.7-6.856,6.9,6.9,0,0,1,5.17,2.1l-1.022,1.1a5.762,5.762,0,0,0-4.167-1.817A5.2,5.2,0,0,0,34.741,71.6v.039a5.231,5.231,0,0,0,5.132,5.472,5.756,5.756,0,0,0,4.281-1.913l.984.966a6.9,6.9,0,0,1-5.3,2.329,6.612,6.612,0,0,1-6.647-6.817" transform="translate(-9.985 -9.447)" fill="#01a0c6"/><path d="M33.188,71.671v-.037a6.678,6.678,0,0,1,6.7-6.856,6.9,6.9,0,0,1,5.17,2.1l-1.022,1.1a5.762,5.762,0,0,0-4.167-1.817A5.2,5.2,0,0,0,34.741,71.6v.039a5.231,5.231,0,0,0,5.132,5.472,5.756,5.756,0,0,0,4.281-1.913l.984.966a6.9,6.9,0,0,1-5.3,2.329A6.612,6.612,0,0,1,33.188,71.671Z" transform="translate(-9.985 -9.447)" fill="none" stroke="#01a0c6" stroke-miterlimit="10" stroke-width="0.085"/><path d="M46.935,68.48h1.458v9.791H46.935Zm1.932-4.223,1.515.7L48.224,67H47.088Z" transform="translate(-9.751 -9.456)" fill="#01a0c6"/><path d="M46.935,68.48h1.458v9.791H46.935Zm1.932-4.223,1.515.7L48.224,67H47.088Z" transform="translate(-9.751 -9.456)" fill="none" stroke="#01a0c6" stroke-miterlimit="10" stroke-width="0.085"/><path d="M51.238,68.412H52.7V70.97a4.193,4.193,0,0,1,4-2.729v1.572h-.114c-2.14,0-3.882,1.534-3.882,4.488v3.9H51.238Z" transform="translate(-9.677 -9.388)" fill="#01a0c6"/><path d="M51.238,68.412H52.7V70.97a4.193,4.193,0,0,1,4-2.729v1.572h-.114c-2.14,0-3.882,1.534-3.882,4.488v3.9H51.238Z" transform="translate(-9.677 -9.388)" fill="none" stroke="#01a0c6" stroke-miterlimit="10" stroke-width="0.085"/><path d="M57.311,73.355v-.039a5.1,5.1,0,0,1,8.939-3.37l-.966,1.023a3.951,3.951,0,0,0-2.973-1.477,3.612,3.612,0,0,0-3.5,3.787v.037a3.658,3.658,0,0,0,3.6,3.807A4.041,4.041,0,0,0,65.4,75.665l.928.872a5.065,5.065,0,0,1-9.015-3.181" transform="translate(-9.574 -9.389)" fill="#01a0c6"/><path d="M57.311,73.355v-.039a5.1,5.1,0,0,1,8.939-3.37l-.966,1.023a3.951,3.951,0,0,0-2.973-1.477,3.612,3.612,0,0,0-3.5,3.787v.037a3.658,3.658,0,0,0,3.6,3.807A4.041,4.041,0,0,0,65.4,75.665l.928.872a5.065,5.065,0,0,1-9.015-3.181Z" transform="translate(-9.574 -9.389)" fill="none" stroke="#01a0c6" stroke-miterlimit="10" stroke-width="0.085"/><path d="M67.929,74.488v-6.08h1.458v5.72c0,1.818.985,2.954,2.708,2.954a2.892,2.892,0,0,0,2.935-3.068V68.408H76.47V78.2H75.031V76.5a3.732,3.732,0,0,1-3.352,1.913,3.577,3.577,0,0,1-3.75-3.921" transform="translate(-9.393 -9.385)" fill="#01a0c6"/><path d="M67.929,74.488v-6.08h1.458v5.72c0,1.818.985,2.954,2.708,2.954a2.892,2.892,0,0,0,2.935-3.068V68.408H76.47V78.2H75.031V76.5a3.732,3.732,0,0,1-3.352,1.913A3.577,3.577,0,0,1,67.929,74.488Z" transform="translate(-9.393 -9.385)" fill="none" stroke="#01a0c6" stroke-miterlimit="10" stroke-width="0.085"/><rect width="1.458" height="13.824" transform="translate(70.016 54.99)" fill="#01a0c6"/><rect width="1.458" height="13.824" transform="translate(70.016 54.99)" fill="none" stroke="#01a0c6" stroke-miterlimit="10" stroke-width="0.085"/><path d="M82.924,73.355v-.039a5.1,5.1,0,0,1,10.208-.037v.037A5.083,5.083,0,0,1,88,78.43a5.016,5.016,0,0,1-5.076-5.075m8.712,0v-.039A3.7,3.7,0,0,0,88,69.493a3.613,3.613,0,0,0-3.579,3.787v.037a3.673,3.673,0,0,0,3.617,3.807,3.613,3.613,0,0,0,3.6-3.768" transform="translate(-9.138 -9.389)" fill="#01a0c6"/><path d="M82.924,73.355v-.039a5.1,5.1,0,0,1,10.208-.037v.037A5.083,5.083,0,0,1,88,78.43,5.016,5.016,0,0,1,82.924,73.355Zm8.712,0v-.039A3.7,3.7,0,0,0,88,69.493a3.613,3.613,0,0,0-3.579,3.787v.037a3.673,3.673,0,0,0,3.617,3.807A3.613,3.613,0,0,0,91.636,73.355Z" transform="translate(-9.138 -9.389)" fill="none" stroke="#01a0c6" stroke-miterlimit="10" stroke-width="0.085"/><path d="M146.061,80.207s-7.453-1.235-9.351,9.115a9.4,9.4,0,0,0-5.744-6.608c-4.89-1.89-9.162.187-10.634,3.587s1.8,7.792,2.089,8.231a42.732,42.732,0,0,0,12.485,11.025c1.756,1.14,3.276-.569,3.655-.854s11.061-7.263,11.963-15.333-4.463-9.162-4.463-9.162" transform="translate(-8.508 -9.185)" fill="#01a0c6"/><path d="M127.765,124.973c4.7,1.251,5.613,2.975,6.747,5.023,8.541-7.345,16.429-13.295,16.877-13.737,0,0-1.851-9.8-23.624,8.714" transform="translate(-8.375 -8.615)" fill="#01a0c6"/><path d="M122.332,125.074c-13.515.074-18.645-.863-20.411-1.47a44.247,44.247,0,0,1-8.771-5.02c-2.636-1.986-8.716-6.973-18.094-4.92s-11.695,1.831-15.942,1.776-16.273,1.379-27.2,14.122C25.576,135.714,10.309,141.9,10.309,141.9l12.357,22.065c16.729-6.142,23.02-13.37,23.02-13.37S52,142.3,69.265,147.27s23.886,6.122,26.589,6.4c2.56.26,8.33.637,11.61-.9l0,0,.025-.013c.116-.055.23-.113.34-.173a49.24,49.24,0,0,0,6.3-3.851c3.116-2.511,8.139-6.744,13.513-11.326a26.982,26.982,0,0,1-3.373.212s-6.73-.607-11.86-1.379c-5.025-.757-15.4-1.408-23.232,3.128a.64.64,0,0,1-.715-1.059c1.8-1.362,8.775-5.506,24.994-3.228,2.593.385,21.348,4.026,22.563-3.31,0,0-.166-6.768-13.681-6.694" transform="translate(-10.374 -8.623)" fill="#01a0c6"/><path d="M126.689,124.745l.395-.334c8.816-7.479,13.864-10.939,19.216-11.53a7.338,7.338,0,0,1,2.589.069,3.817,3.817,0,0,0-3.322-2.862c-3.008-.516-9.681.465-24.748,14.1a29.13,29.13,0,0,1,5.87.557" transform="translate(-8.493 -8.677)" fill="#01a0c6"/><path d="M119.527,124.2l.725-.6c8.736-8.837,15.9-12.01,19.6-13.6-4.394-.932-8.4.925-10.74,2.323-5.4,3.221-13.907,10.556-15.35,11.812,1.588.04,3.35.063,5.315.063h.454" transform="translate(-8.613 -8.681)" fill="#01a0c6"/><path d="M46.243,47.482c-4.7-1.251-5.613-2.975-6.747-5.023C30.956,49.8,23.068,55.754,22.619,56.2c0,0,1.851,9.795,23.624-8.714" transform="translate(-10.165 -9.827)" fill="#01a0c6"/><path d="M53.385,47.958c13.515-.074,18.645.863,20.411,1.47a44.249,44.249,0,0,1,8.771,5.02c2.636,1.986,8.716,6.973,18.094,4.92s11.695-1.831,15.942-1.776,16.273-1.379,27.2-14.122c6.344-6.152,21.611-12.336,21.611-12.336L153.051,9.068c-16.729,6.142-23.02,13.37-23.02,13.37s-6.313,8.29-23.579,3.325-23.886-6.122-26.589-6.4c-2.56-.26-8.33-.637-11.61.9l0,0-.025.013c-.116.055-.23.113-.34.173a49.232,49.232,0,0,0-6.3,3.851c-3.116,2.511-8.139,6.744-13.513,11.326a26.984,26.984,0,0,1,3.373-.212s6.73.607,11.86,1.379c5.025.757,15.4,1.408,23.232-3.128a.64.64,0,0,1,.715,1.059c-1.8,1.362-8.775,5.506-24.994,3.228-2.593-.385-21.348-4.026-22.563,3.31,0,0,.166,6.768,13.681,6.694" transform="translate(-9.874 -10.395)" fill="#01a0c6"/><path d="M47.394,47.683,47,48.017C38.183,55.5,33.135,58.956,27.783,59.547a7.339,7.339,0,0,1-2.589-.069,3.817,3.817,0,0,0,3.322,2.862c3.008.516,9.681-.465,24.748-14.1a29.132,29.132,0,0,1-5.87-.557" transform="translate(-10.121 -9.738)" fill="#01a0c6"/><path d="M54.523,48.228l-.725.6c-8.736,8.837-15.9,12.01-19.6,13.6,4.394.932,8.4-.925,10.74-2.323,5.4-3.221,13.907-10.556,15.35-11.812-1.588-.04-3.35-.063-5.315-.063h-.454" transform="translate(-9.967 -9.729)" fill="#01a0c6"/><path d="M30.345,86.519H22.17v-5.45H44.43v5.45H36.255v21.415h-5.91Z" transform="translate(-10.172 -9.17)" fill="#01a0c6"/><path d="M47.058,81.069H67.323v5.258H52.931v5.449H65.6v5.258H52.931v5.641H67.514v5.258H47.058Z" transform="translate(-9.749 -9.17)" fill="#01a0c6"/><path d="M69.768,81.069h5.45L87.806,97.61V81.069H93.64v26.865H88.611L75.6,90.856v17.078H69.768Z" transform="translate(-9.362 -9.17)" fill="#01a0c6"/><path d="M105.6,80.88h5.449l11.514,27.057h-6.178l-2.457-6.026H102.568l-2.457,6.026H94.086Zm6.217,15.812-3.569-8.712-3.57,8.712Z" transform="translate(-8.948 -9.173)" fill="#01a0c6"/><path d="M127.765,124.973c4.7,1.251,5.613,2.975,6.747,5.023,8.541-7.345,16.429-13.295,16.877-13.737,0,0-1.851-9.8-23.624,8.714" transform="translate(-8.375 -8.615)" fill="#163881"/><path d="M122.332,125.074c-13.515.074-18.645-.863-20.411-1.47a44.247,44.247,0,0,1-8.771-5.02c-2.636-1.986-8.716-6.973-18.094-4.92s-11.695,1.831-15.942,1.776-16.273,1.379-27.2,14.122C25.576,135.714,10.309,141.9,10.309,141.9l12.357,22.065c16.729-6.142,23.02-13.37,23.02-13.37S52,142.3,69.265,147.27s23.886,6.122,26.589,6.4c2.56.26,8.33.637,11.61-.9l0,0,.025-.013c.116-.055.23-.113.34-.173a49.24,49.24,0,0,0,6.3-3.851c3.116-2.511,8.139-6.744,13.513-11.326a26.982,26.982,0,0,1-3.373.212s-6.73-.607-11.86-1.379c-5.025-.757-15.4-1.408-23.232,3.128a.64.64,0,0,1-.715-1.059c1.8-1.362,8.775-5.506,24.994-3.228,2.593.385,21.348,4.026,22.563-3.31,0,0-.166-6.768-13.681-6.694" transform="translate(-10.374 -8.623)" fill="#163881"/><path d="M126.689,124.745l.395-.334c8.816-7.479,13.864-10.939,19.216-11.53a7.338,7.338,0,0,1,2.589.069,3.817,3.817,0,0,0-3.322-2.862c-3.008-.516-9.681.465-24.748,14.1a29.13,29.13,0,0,1,5.87.557" transform="translate(-8.493 -8.677)" fill="#163881"/><path d="M119.527,124.2l.725-.6c8.736-8.837,15.9-12.01,19.6-13.6-4.394-.932-8.4.925-10.74,2.323-5.4,3.221-13.907,10.556-15.35,11.812,1.588.04,3.35.063,5.315.063h.454" transform="translate(-8.613 -8.681)" fill="#163881"/><path d="M46.243,47.482c-4.7-1.251-5.613-2.975-6.747-5.023C30.956,49.8,23.068,55.754,22.619,56.2c0,0,1.851,9.795,23.624-8.714" transform="translate(-10.165 -9.827)" fill="#163881"/><path d="M53.385,47.958c13.515-.074,18.645.863,20.411,1.47a44.249,44.249,0,0,1,8.771,5.02c2.636,1.986,8.716,6.973,18.094,4.92s11.695-1.831,15.942-1.776,16.273-1.379,27.2-14.122c6.344-6.152,21.611-12.336,21.611-12.336L153.051,9.068c-16.729,6.142-23.02,13.37-23.02,13.37s-6.313,8.29-23.579,3.325-23.886-6.122-26.589-6.4c-2.56-.26-8.33-.637-11.61.9l0,0-.025.013c-.116.055-.23.113-.34.173a49.232,49.232,0,0,0-6.3,3.851c-3.116,2.511-8.139,6.744-13.513,11.326a26.984,26.984,0,0,1,3.373-.212s6.73.607,11.86,1.379c5.025.757,15.4,1.408,23.232-3.128a.64.64,0,0,1,.715,1.059c-1.8,1.362-8.775,5.506-24.994,3.228-2.593-.385-21.348-4.026-22.563,3.31,0,0,.166,6.768,13.681,6.694" transform="translate(-9.874 -10.395)" fill="#163881"/><path d="M47.394,47.683,47,48.017C38.183,55.5,33.135,58.956,27.783,59.547a7.339,7.339,0,0,1-2.589-.069,3.817,3.817,0,0,0,3.322,2.862c3.008.516,9.681-.465,24.748-14.1a29.132,29.132,0,0,1-5.87-.557" transform="translate(-10.121 -9.738)" fill="#163881"/><path d="M54.523,48.228l-.725.6c-8.736,8.837-15.9,12.01-19.6,13.6,4.394.932,8.4-.925,10.74-2.323,5.4-3.221,13.907-10.556,15.35-11.812-1.588-.04-3.35-.063-5.315-.063h-.454" transform="translate(-9.967 -9.729)" fill="#163881"/><path d="M30.345,86.519H22.17v-5.45H44.43v5.45H36.255v21.415h-5.91Z" transform="translate(-10.172 -9.17)" fill="#163881"/><path d="M47.058,81.069H67.323v5.258H52.931v5.449H65.6v5.258H52.931v5.641H67.514v5.258H47.058Z" transform="translate(-9.749 -9.17)" fill="#163881"/><path d="M69.768,81.069h5.45L87.806,97.61V81.069H93.64v26.865H88.611L75.6,90.856v17.078H69.768Z" transform="translate(-9.362 -9.17)" fill="#163881"/><path d="M105.6,80.88h5.449l11.514,27.057h-6.178l-2.457-6.026H102.568l-2.457,6.026H94.086Zm6.217,15.812-3.569-8.712-3.57,8.712Z" transform="translate(-8.948 -9.173)" fill="#163881"/></g></g></g></svg>